<svg width="369" height="254" viewBox="0 0 369 254" fill="none" xmlns="http://www.w3.org/2000/svg">
<g clip-path="url(#clip0_354_211)">
<path d="M0 126.549H36.9532L42.1305 132.775L50.7751 117.209L54.9311 132.775L60.1084 126.905L63.9082 129.329L67.3518 132.775L94.3067 43.5853H99.8402L101.906 40.1394L132.305 223.344L158.547 116.52L169.258 109.604L177.903 126.882L185.859 119.966C185.859 119.966 197.614 125.147 197.947 126.525C198.279 127.903 211.08 129.638 211.08 129.638L215.925 131.706L253.21 7.62891L258.055 13.8553L262.9 10.7421L290.187 235.083L321.631 115.474L331.297 133.441L337.163 119.609L346.828 125.836L367.205 134.819" stroke="#ACACAC" stroke-width="8" stroke-miterlimit="10"/>
<path d="M57.3149 125.35L67.3517 132.775L94.3067 43.5846H99.8401L101.906 40.1387L132.305 223.343L158.547 116.519L169.258 109.604L178.955 129.061" stroke="#CE90C2" stroke-width="8" stroke-miterlimit="10"/>
<path d="M199.277 127.357L215.901 131.73L253.211 7.62891L258.032 13.8553L262.876 10.7421L290.164 235.083L321.607 115.498L331.273 133.464" stroke="#CE90C2" stroke-width="8" stroke-miterlimit="10"/>
</g>
<defs>
<clipPath id="clip0_354_211">
<rect width="368.63" height="254" fill="white"/>
</clipPath>
</defs>
</svg>
